<?xml version="1.0" standalone="no"?>
<!DOCTYPE svg PUBLIC "-//W3C//DTD SVG 20010904//EN"
 "http://www.w3.org/TR/2001/REC-SVG-20010904/DTD/svg10.dtd">
<svg version="1.0" xmlns="http://www.w3.org/2000/svg"
 width="260.000000pt" height="260.000000pt" viewBox="0 0 260.000000 260.000000"
 preserveAspectRatio="xMidYMid meet">
<metadata>
Created by potrace 1.14, written by Peter Selinger 2001-2017
</metadata>
<g transform="translate(0.000000,260.000000) scale(0.100000,-0.100000)"
fill="#000000" stroke="none">
<path d="M0 1300 l0 -1300 1300 0 1300 0 0 1300 0 1300 -1300 0 -1300 0 0
-1300z m975 448 c162 -458 251 -729 291 -883 l28 -109 18 64 c50 178 156 487
301 883 l161 437 143 0 c130 0 143 -2 143 -17 -2 -71 96 -1559 102 -1561 4 -2
8 -28 8 -58 l0 -54 -110 0 c-80 0 -112 3 -115 13 -8 27 -57 967 -62 1207 -3
140 -10 246 -14 235 -4 -11 -37 -112 -73 -225 -36 -113 -148 -432 -249 -710
l-184 -505 -83 0 -82 0 -27 75 c-84 231 -339 1002 -385 1163 -58 205 -66 211
-66 52 0 -164 -66 -1280 -76 -1296 -3 -5 -50 -9 -105 -9 l-99 0 0 28 c0 15 25
380 55 812 30 432 55 800 55 818 l0 32 143 0 144 0 138 -392z"/>
</g>
</svg>
